<svg width="512" height="512" viewBox="0 0 512 512" fill="none" xmlns="http://www.w3.org/2000/svg">
<path d="M156.648 386.6C119.603 386.6 90.1627 378.504 68.328 362.312C46.4933 345.875 34.84 320.728 33.368 286.872C33.1227 280.248 33 269.453 33 254.488C33 239.277 33.1227 228.237 33.368 221.368C34.84 188.493 46.7387 163.715 69.064 147.032C91.3893 130.104 120.436 125.6 156.5 125.6C178.58 125.6 253.868 125.42 268.197 125.42C282.527 125.42 280.664 134.42 280.664 134.42C280.664 134.42 280.419 174.504 280.664 195.848C280.664 198.056 279.805 200.019 278.088 201.736C276.616 203.208 274.776 203.944 272.568 203.944C272.568 203.944 201.421 203.944 197.496 203.944C193.571 203.944 188.5 203.944 188.5 203.944H173.5C168 203.944 163.517 203.944 156.648 203.944C149.78 203.944 136.242 203.944 131.098 203.944C129.97 203.944 129.073 204.87 129.093 205.997C129.15 209.143 129.221 215.598 129.048 223.208C128.803 229.832 128.68 240.013 128.68 253.752C128.68 267.491 128.803 277.917 129.048 285.032C129.293 295.827 131.747 303.555 136.408 308.216C141.069 312.632 147.693 314.84 156.28 314.84C170.264 314.84 179.464 308.216 183.88 294.968C185.107 290.797 186.579 287.976 188.296 286.504C190.259 285.032 193.325 284.296 197.496 284.296H272.568C274.776 284.296 276.616 285.155 278.088 286.872C279.805 288.344 280.664 290.184 280.664 292.392C280.419 313.736 274.408 331.523 262.632 345.752C251.101 359.736 236.013 370.04 217.368 376.664C198.968 383.288 178.728 386.6 156.648 386.6Z" fill="black"/>
<path d="M325.232 382.6C322.533 382.6 320.202 381.619 318.24 379.656C316.277 377.693 315.296 375.363 315.296 372.664V204.12H254.208C251.509 204.12 249.178 203.139 247.216 201.176C245.253 199.213 244.272 196.883 244.272 194.184V134.936C244.272 132.237 245.253 129.907 247.216 127.944C249.178 125.981 251.509 125 254.208 125H469.856C472.554 125 474.885 125.981 476.848 127.944C478.81 129.907 479.792 132.237 479.792 134.936V194.184C479.792 196.883 478.81 199.213 476.848 201.176C474.885 203.139 472.554 204.12 469.856 204.12H408.768V372.664C408.768 375.363 407.786 377.693 405.824 379.656C403.861 381.619 401.53 382.6 398.832 382.6H325.232Z" fill="black"/>
</svg>
